<svg width="379" height="74" viewBox="0 0 379 74" fill="none" xmlns="http://www.w3.org/2000/svg">
<g clip-path="url(#clip0_181_211)">
<path d="M62.4276 31.3348H44.0666C43.9136 29.8027 43.6076 28.4238 42.9956 27.1982C42.3836 25.9725 41.6185 24.9 40.7005 23.9808C39.7824 23.0615 38.5584 22.4487 37.1813 21.8359C35.8042 21.3762 34.2742 21.0698 32.5911 21.0698C29.5309 21.0698 26.9298 21.8359 24.9407 23.2147C22.7986 24.7468 21.2685 26.7385 20.1974 29.4963C19.1264 32.2541 18.5144 35.6247 18.5144 39.4549C18.5144 43.5915 19.1264 46.9622 20.1974 49.7199C21.2685 52.4777 22.9516 54.4694 24.9407 55.8483C27.0828 57.2272 29.5309 57.9932 32.4381 57.9932C34.1211 57.9932 35.6512 57.84 36.8753 57.3804C38.2524 56.9207 39.3234 56.3079 40.3945 55.5419C41.4655 54.7758 42.2306 53.7034 42.8426 52.6309C43.4546 51.5584 43.9136 50.1795 44.0666 48.8007L62.4276 48.9539C62.2746 51.7116 61.3565 54.6226 59.9794 57.5336C58.6024 60.4445 56.6133 63.2023 54.1652 65.6537C51.717 68.105 48.5039 70.0967 44.8317 71.6288C41.1595 73.1609 36.8753 73.9269 31.979 73.9269C25.8587 73.9269 20.3505 72.5481 15.6072 69.9435C10.711 67.339 6.88577 63.5087 4.13164 58.2996C1.3775 53.2437 0.000427246 46.9621 0.000427246 39.6081C0.000427246 32.2541 1.3775 25.9725 4.28464 20.7634C7.19179 15.7075 11.017 11.8773 15.9132 9.27271C20.8095 6.66816 26.1647 5.28928 32.132 5.28928C36.4163 5.28928 40.2415 5.90211 43.7606 6.97458C47.2798 8.04704 50.34 9.73234 53.0941 12.0305C55.6952 14.1754 57.8373 16.9332 59.5204 20.1506C61.2035 23.5212 62.1216 27.1982 62.4276 31.3348Z" fill="white"/>
<path d="M70.9955 73.0075V22.9081H88.4384V32.4071H88.8974C89.8154 28.8832 91.1925 26.2787 93.1816 24.7466C95.1707 23.0613 97.4658 22.2953 100.22 22.2953C100.985 22.2953 101.75 22.2953 102.515 22.4485C103.28 22.6017 104.045 22.7549 104.81 22.9081V38.229C103.892 37.9226 102.821 37.7694 101.597 37.6162C100.22 37.463 99.1489 37.463 98.2308 37.463C96.5478 37.463 94.8647 37.9226 93.4876 38.6886C92.1105 39.4547 91.0395 40.5271 90.1214 42.0592C89.3564 43.4381 88.8974 45.1234 88.8974 47.1151V73.1607H70.9955V73.0075Z" fill="white"/>
<path d="M131.893 73.9268C126.538 73.9268 121.794 72.8544 117.969 70.7095C114.144 68.5645 111.084 65.5003 109.095 61.6701C107.106 57.8399 106.035 53.2436 106.035 48.1877C106.035 43.1318 107.106 38.5355 109.095 34.7053C111.084 30.8751 114.144 27.8109 117.969 25.666C121.794 23.521 126.538 22.4486 131.893 22.4486C137.248 22.4486 141.991 23.521 145.817 25.666C149.642 27.8109 152.702 30.8751 154.691 34.7053C156.68 38.5355 157.751 43.1318 157.751 48.1877C157.751 53.2436 156.68 57.8399 154.691 61.6701C152.702 65.5003 149.642 68.5645 145.817 70.7095C141.838 72.8544 137.248 73.9268 131.893 73.9268ZM131.893 60.5976C133.423 60.5976 134.8 60.138 135.871 59.0656C136.942 57.9931 137.86 56.6142 138.472 54.7757C139.084 52.9372 139.39 50.6391 139.39 48.0345C139.39 45.4299 139.084 43.1318 138.472 41.2933C137.86 39.4548 136.942 37.9227 135.871 37.0034C134.8 35.931 133.423 35.4714 131.893 35.4714C130.363 35.4714 128.986 35.931 127.762 37.0034C126.538 38.0759 125.773 39.4548 125.161 41.2933C124.549 43.1318 124.243 45.4299 124.243 48.0345C124.243 50.6391 124.549 52.9372 125.161 54.7757C125.773 56.6142 126.691 58.1463 127.762 59.0656C128.986 60.138 130.363 60.5976 131.893 60.5976Z" fill="white"/>
<path d="M182.997 44.8171V73.0076H165.095V22.9082H182.079V32.4072H182.538C183.609 29.1898 185.598 26.7385 188.352 24.8999C191.107 23.0614 194.32 22.1422 197.992 22.1422C201.511 22.1422 204.571 22.9082 207.172 24.5935C209.774 26.2788 211.763 28.4238 213.293 31.1815C214.67 33.9393 215.435 37.1567 215.435 40.8337V72.7012H197.38V44.8171C197.38 42.3658 196.768 40.3741 195.544 38.9952C194.32 37.6163 192.484 36.8503 190.189 36.8503C188.658 36.8503 187.434 37.1567 186.363 37.7695C185.292 38.3823 184.374 39.3016 183.915 40.5273C183.456 41.7529 182.997 43.285 182.997 44.8171Z" fill="white"/>
<path d="M224.157 73.0077V22.9083H242.059V73.0077H224.157Z" fill="white"/>
<path d="M281.075 22.9083V35.931H248.179V22.9083H281.075ZM254.605 10.9579H272.507V56.9207C272.507 57.6867 272.66 58.1463 272.813 58.606C273.119 59.0656 273.425 59.372 273.884 59.6784C274.343 59.8316 274.955 59.9849 275.873 59.9849C276.485 59.9849 277.097 59.9849 277.709 59.8316C278.474 59.6784 278.933 59.5252 279.392 59.5252L281.993 72.2416C281.228 72.548 280.004 72.7012 278.627 73.1608C277.25 73.6205 275.414 73.7737 273.272 73.7737C269.141 73.9269 265.621 73.6205 262.867 72.548C260.113 71.4755 257.971 69.7902 256.594 67.4921C255.217 65.194 254.452 62.283 254.605 58.7592V10.9579Z" fill="white"/>
<path d="M311.983 73.9268C306.628 73.9268 301.885 72.8544 298.059 70.7095C294.234 68.5645 291.174 65.5003 289.185 61.6701C287.196 57.8399 286.125 53.2436 286.125 48.1877C286.125 43.1318 287.196 38.5355 289.185 34.7053C291.174 30.8751 294.234 27.8109 298.059 25.666C301.885 23.521 306.628 22.4486 311.983 22.4486C317.338 22.4486 322.082 23.521 325.907 25.666C329.732 27.8109 332.792 30.8751 334.781 34.7053C336.77 38.5355 337.841 43.1318 337.841 48.1877C337.841 53.2436 336.77 57.8399 334.781 61.6701C332.792 65.5003 329.732 68.5645 325.907 70.7095C322.082 72.8544 317.338 73.9268 311.983 73.9268ZM312.136 60.5976C313.666 60.5976 315.043 60.138 316.114 59.0656C317.185 57.9931 318.103 56.6142 318.715 54.7757C319.327 52.9372 319.633 50.6391 319.633 48.0345C319.633 45.4299 319.327 43.1318 318.715 41.2933C318.103 39.4548 317.185 37.9227 316.114 37.0034C315.043 35.931 313.666 35.4714 312.136 35.4714C310.606 35.4714 309.229 35.931 308.005 37.0034C306.781 38.0759 306.016 39.4548 305.404 41.2933C304.792 43.1318 304.486 45.4299 304.486 48.0345C304.486 50.6391 304.792 52.9372 305.404 54.7757C306.016 56.6142 306.934 58.1463 308.005 59.0656C309.076 60.138 310.453 60.5976 312.136 60.5976Z" fill="white"/>
<path d="M345.185 73.0075V22.9081H362.628V32.4071H363.087C364.005 28.8832 365.382 26.2787 367.372 24.7466C369.361 23.0613 371.656 22.2953 374.41 22.2953C375.175 22.2953 375.94 22.2953 376.705 22.4485C377.47 22.6017 378.235 22.7549 379 22.9081V38.229C378.082 37.9226 377.011 37.7694 375.787 37.6162C374.41 37.463 373.339 37.463 372.421 37.463C370.738 37.463 369.055 37.9226 367.678 38.6886C366.3 39.4547 365.229 40.5271 364.311 42.0592C363.546 43.4381 363.087 45.1234 363.087 47.1151V73.1607H345.185V73.0075Z" fill="white"/>
<path d="M232.725 19.9172C238.218 19.9172 242.671 15.4586 242.671 9.95859C242.671 4.45861 238.218 0 232.725 0C227.233 0 222.78 4.45861 222.78 9.95859C222.78 15.4586 227.233 19.9172 232.725 19.9172Z" fill="#81D7A0"/>
</g>
<defs>
<clipPath id="clip0_181_211">
<rect width="379" height="74" fill="white"/>
</clipPath>
</defs>
</svg>
